<svg width="58" height="46" viewBox="0 0 58 46" fill="none" xmlns="http://www.w3.org/2000/svg">
<g clip-path="url(#clip0_252_1544)">
<path d="M35.2906 0.107793C33.7633 -0.332442 32.1731 0.557011 31.7328 2.08436L20.2328 42.3344C19.7926 43.8617 20.682 45.4519 22.2094 45.8922C23.7367 46.3324 25.327 45.4429 25.7672 43.9156L37.2672 3.66561C37.7074 2.13826 36.818 0.548027 35.2906 0.107793ZM42.532 10.898C41.409 12.0211 41.409 13.8449 42.532 14.9679L50.5551 23L42.5231 31.032C41.4 32.1551 41.4 33.9789 42.5231 35.1019C43.6461 36.225 45.4699 36.225 46.593 35.1019L56.6555 25.0394C57.7785 23.9164 57.7785 22.0926 56.6555 20.9695L46.593 10.907C45.4699 9.78396 43.6461 9.78396 42.5231 10.907L42.532 10.898ZM14.977 10.898C13.8539 9.77498 12.0301 9.77498 10.907 10.898L0.844543 20.9605C-0.278503 22.0836 -0.278503 23.9074 0.844543 25.0305L10.907 35.0929C12.0301 36.216 13.8539 36.216 14.977 35.0929C16.1 33.9699 16.1 32.1461 14.977 31.023L6.94493 23L14.977 14.9679C16.1 13.8449 16.1 12.0211 14.977 10.898Z" fill="#28A0D4"/>
</g>
<defs>
<clipPath id="clip0_252_1544">
<rect width="57.5" height="46" fill="white"/>
</clipPath>
</defs>
</svg>
