<svg width="19" height="19" viewBox="0 0 19 19" fill="none" xmlns="http://www.w3.org/2000/svg">
<path d="M16.9643 0H2.03571C1.49581 0 0.978017 0.214476 0.596247 0.596247C0.214476 0.978017 0 1.49581 0 2.03571L0 16.9643C0 17.5042 0.214476 18.022 0.596247 18.4038C0.978017 18.7855 1.49581 19 2.03571 19H7.85658V12.5404H5.18471V9.5H7.85658V7.18268C7.85658 4.54685 9.42578 3.09089 11.8292 3.09089C12.9802 3.09089 14.1838 3.29616 14.1838 3.29616V5.88321H12.8577C11.551 5.88321 11.1434 6.69411 11.1434 7.52578V9.5H14.0604L13.5939 12.5404H11.1434V19H16.9643C17.5042 19 18.022 18.7855 18.4038 18.4038C18.7855 18.022 19 17.5042 19 16.9643V2.03571C19 1.49581 18.7855 0.978017 18.4038 0.596247C18.022 0.214476 17.5042 0 16.9643 0Z" fill="white"/>
</svg>
