<svg width="35" height="46" viewBox="0 0 35 46" fill="none" xmlns="http://www.w3.org/2000/svg">
<path d="M1.25781 8.60703C1.25781 3.8543 5.11211 0 9.86484 0H24.6352C29.3879 0 33.2422 3.8543 33.2422 8.60703C33.2422 11.6168 31.6969 14.2672 29.352 15.8035C31.6969 17.3398 33.2422 19.9902 33.2422 23C33.2422 27.7527 29.3879 31.607 24.6352 31.607H24.4465C22.2184 31.607 20.1879 30.7625 18.6605 29.3699V37.3031C18.6605 42.1188 14.7074 46 9.90977 46C5.16602 46 1.25781 42.1547 1.25781 37.393C1.25781 34.3832 2.80313 31.7328 5.13906 30.1965C2.80313 28.6602 1.25781 26.0098 1.25781 23C1.25781 19.9902 2.80313 17.3398 5.13906 15.8035C2.80313 14.2672 1.25781 11.6168 1.25781 8.60703ZM15.8395 17.2141H9.86484C6.66641 17.2141 4.07891 19.8016 4.07891 23C4.07891 26.1805 6.64844 28.768 9.82891 28.7859C9.83789 28.7859 9.85586 28.7859 9.86484 28.7859H15.8395V17.2141ZM18.6605 23C18.6605 26.1984 21.248 28.7859 24.4465 28.7859H24.6352C27.8246 28.7859 30.4211 26.1984 30.4211 23C30.4211 19.8016 27.8246 17.2141 24.6352 17.2141H24.4465C21.248 17.2141 18.6605 19.8016 18.6605 23ZM9.86484 31.607C9.85586 31.607 9.83789 31.607 9.82891 31.607C6.64844 31.625 4.07891 34.2125 4.07891 37.393C4.07891 40.5824 6.70234 43.1789 9.90977 43.1789C13.1711 43.1789 15.8395 40.5375 15.8395 37.3031V31.607H9.86484ZM9.86484 2.82109C6.66641 2.82109 4.07891 5.40859 4.07891 8.60703C4.07891 11.8055 6.66641 14.393 9.86484 14.393H15.8395V2.82109H9.86484ZM18.6605 14.393H24.6352C27.8246 14.393 30.4211 11.8055 30.4211 8.60703C30.4211 5.40859 27.8246 2.82109 24.6352 2.82109H18.6605V14.393Z" fill="#28A0D4"/>
</svg>
