<svg width="52" height="46" viewBox="0 0 52 46" fill="none" xmlns="http://www.w3.org/2000/svg">
<g clip-path="url(#clip0_252_2442)">
<path d="M0 5.75C0 2.57852 2.57852 0 5.75 0H20.125V11.5C20.125 13.0902 21.4098 14.375 23 14.375H34.5V26.9172L25.9918 35.4254C25.2551 36.1621 24.734 37.0875 24.4824 38.0938L23.1348 43.4934C22.9281 44.3379 22.973 45.2004 23.2605 45.991H5.75C2.57852 45.991 0 43.4125 0 40.241V5.75ZM34.5 11.5H23V0L34.5 11.5ZM49.3961 21.1762L50.6898 22.4699C52.0914 23.8715 52.0914 26.1445 50.6898 27.5551L48.0484 30.1965L41.6695 23.8176L44.3109 21.1762C45.7125 19.7746 47.9855 19.7746 49.3961 21.1762ZM28.0223 37.4648L39.6301 25.857L46.009 32.2359L34.4012 43.8348C34.0328 44.2031 33.5746 44.4637 33.0625 44.5895L27.6629 45.9371C27.1687 46.0629 26.6566 45.9191 26.2973 45.5598C25.9379 45.2004 25.7941 44.6883 25.9199 44.1941L27.2676 38.7945C27.3934 38.2914 27.6539 37.8242 28.0223 37.4559V37.4648Z" fill="white"/>
</g>
<defs>
<clipPath id="clip0_252_2442">
<rect width="51.75" height="46" fill="white"/>
</clipPath>
</defs>
</svg>
