<svg width="46" height="46" viewBox="0 0 46 46" fill="none" xmlns="http://www.w3.org/2000/svg">
<g clip-path="url(#clip0_252_1492)">
<path d="M23 4.3125C12.677 4.3125 4.3125 12.677 4.3125 23V26.5938C4.3125 27.7887 3.35117 28.75 2.15625 28.75C0.961328 28.75 0 27.7887 0 26.5938V23C0 10.2961 10.2961 0 23 0C35.7039 0 46 10.2961 46 23V35.9465C46 40.3129 42.4602 43.8527 38.0848 43.8527L28.175 43.8438C27.4293 45.1285 26.0367 46 24.4375 46H21.5625C19.1816 46 17.25 44.0684 17.25 41.6875C17.25 39.3066 19.1816 37.375 21.5625 37.375H24.4375C26.0367 37.375 27.4293 38.2465 28.175 39.5312L38.0938 39.5402C40.0793 39.5402 41.6875 37.932 41.6875 35.9465V23C41.6875 12.677 33.323 4.3125 23 4.3125ZM12.9375 18.6875H14.375C15.9652 18.6875 17.25 19.9723 17.25 21.5625V31.625C17.25 33.2152 15.9652 34.5 14.375 34.5H12.9375C9.76602 34.5 7.1875 31.9215 7.1875 28.75V24.4375C7.1875 21.266 9.76602 18.6875 12.9375 18.6875ZM33.0625 18.6875C36.234 18.6875 38.8125 21.266 38.8125 24.4375V28.75C38.8125 31.9215 36.234 34.5 33.0625 34.5H31.625C30.0348 34.5 28.75 33.2152 28.75 31.625V21.5625C28.75 19.9723 30.0348 18.6875 31.625 18.6875H33.0625Z" fill="#28A0D4"/>
</g>
<defs>
<clipPath id="clip0_252_1492">
<rect width="46" height="46" fill="white"/>
</clipPath>
</defs>
</svg>
