<svg width="46" height="46" viewBox="0 0 46 46" fill="none" xmlns="http://www.w3.org/2000/svg">
<g clip-path="url(#clip0_252_1574)">
<path d="M45.3172 10.4038C45.3096 10.3823 45.3006 10.3613 45.2902 10.3409C45.2785 10.3008 45.2635 10.2618 45.2453 10.2241C45.2319 10.2021 45.2169 10.1811 45.2004 10.1612C45.1811 10.133 45.1601 10.106 45.1375 10.0804C45.1195 10.0624 45.0926 10.0444 45.0656 10.0265C45.0401 10.0038 45.0131 9.98277 44.9848 9.96358L36.3328 4.99522C36.2236 4.93214 36.0996 4.89893 35.9734 4.89893C35.8473 4.89893 35.7233 4.93214 35.6141 4.99522L26.9621 9.97256C26.9337 9.9916 26.9067 10.0126 26.8813 10.0355C26.8562 10.0518 26.8321 10.0699 26.8094 10.0894C26.7866 10.1148 26.7656 10.1418 26.7465 10.1702C26.7285 10.1882 26.7106 10.2151 26.7016 10.2331C26.6838 10.2709 26.6688 10.3099 26.6566 10.3499C26.6477 10.3679 26.6387 10.3858 26.6297 10.4128C26.6125 10.4742 26.6034 10.5377 26.6027 10.6015V20.053L19.3973 24.2038V5.696C19.3969 5.63218 19.3879 5.5687 19.3703 5.50733C19.3613 5.48936 19.3523 5.46241 19.3434 5.44444C19.3312 5.40739 19.3162 5.37135 19.2984 5.33663C19.2895 5.30967 19.2625 5.2917 19.2535 5.27374C19.2342 5.24553 19.2132 5.21853 19.1906 5.19288C19.1676 5.17366 19.1436 5.15566 19.1188 5.13897C19.093 5.11646 19.066 5.09546 19.0379 5.07608L10.3859 0.0987356C10.2767 0.0356522 10.1527 0.00244141 10.0266 0.00244141C9.9004 0.00244141 9.77646 0.0356522 9.66719 0.0987356L1.01524 5.07608C0.986496 5.09463 0.959438 5.11568 0.934379 5.13897C0.909293 5.15538 0.885285 5.17339 0.862504 5.19288C0.83969 5.21834 0.818676 5.24536 0.799614 5.27374C0.781645 5.30069 0.763676 5.31866 0.745708 5.33663C0.727797 5.37127 0.712772 5.40733 0.700786 5.44444C0.69058 5.46486 0.68158 5.48586 0.673833 5.50733C0.656717 5.56879 0.647657 5.63221 0.646879 5.696V35.3175C0.64574 35.4447 0.67841 35.57 0.741551 35.6805C0.804691 35.791 0.896038 35.8828 1.00625 35.9464L18.3012 45.9011C18.3389 45.9191 18.3779 45.9341 18.418 45.946C18.4359 45.955 18.4539 45.964 18.4719 45.973C18.5925 46.0054 18.7196 46.0054 18.8402 45.973C18.8582 45.964 18.8762 45.955 18.8941 45.955C18.9376 45.9408 18.9797 45.9227 19.0199 45.9011L36.3328 35.9464C36.443 35.8828 36.5344 35.791 36.5975 35.6805C36.6607 35.57 36.6933 35.4447 36.6922 35.3175V25.8659L44.9758 21.0952C45.086 21.0316 45.1773 20.9398 45.2405 20.8293C45.3036 20.7189 45.3363 20.5936 45.3352 20.4663V10.5925C45.3369 10.5291 45.3309 10.4657 45.3172 10.4038ZM10.0266 1.5542L17.232 5.70499L10.0266 9.85577L2.8211 5.696L10.0266 1.5542ZM17.9598 6.94483V25.0304L13.782 27.4382L10.7543 29.1812V11.0956L14.932 8.6878L17.9598 6.94483ZM17.9598 44.0323L2.10235 34.9042V6.94483L5.13008 8.6878L9.30782 11.0956V30.43C9.30904 30.4571 9.31204 30.4841 9.3168 30.5108C9.32005 30.5472 9.32605 30.5832 9.33477 30.6187C9.34447 30.6466 9.3565 30.6736 9.37071 30.6995C9.38014 30.7304 9.39216 30.7605 9.40664 30.7894C9.42319 30.8144 9.44119 30.8384 9.46055 30.8612C9.47981 30.8866 9.50083 30.9106 9.52344 30.9331C9.54141 30.9511 9.56836 30.969 9.59532 30.987C9.6209 31.0097 9.64791 31.0307 9.67618 31.0499L17.9598 35.7397V44.0323ZM18.6785 34.4909L11.482 30.421L19.0379 26.0726L27.3305 21.3019L34.527 25.4437L29.2441 28.4624L18.6785 34.4909ZM35.2547 34.9042L19.3973 44.0323V35.7397L31.1398 29.0374L35.2547 26.6835V34.9042ZM35.2547 24.2038L32.227 22.4608L28.0492 20.053V11.8413L31.077 13.5843L35.2547 15.9921V24.2038ZM35.9734 14.7433L28.768 10.5925L35.9734 6.4417L43.1789 10.5925L35.9734 14.7433ZM36.6922 24.2038V15.9921L40.8789 13.5843L43.9066 11.8413V20.053L36.6922 24.2038Z" fill="#28A0D4"/>
</g>
<defs>
<clipPath id="clip0_252_1574">
<rect width="46" height="46" fill="white"/>
</clipPath>
</defs>
</svg>
