<svg width="46" height="46" viewBox="0 0 46 46" fill="none" xmlns="http://www.w3.org/2000/svg">
<g clip-path="url(#clip0_252_2482)">
<path d="M13.6652 3.43198C14.5547 4.23159 14.6266 5.58823 13.827 6.47768L7.35821 13.6652C6.9629 14.1054 6.40587 14.366 5.8129 14.3749C5.21993 14.3839 4.65391 14.1593 4.23165 13.746L0.628912 10.1523C-0.206635 9.30776 -0.206635 7.94214 0.628912 7.09761C1.46446 6.25308 2.83907 6.25308 3.67462 7.09761L5.66016 9.08315L10.6106 3.58472C11.4102 2.69526 12.7668 2.62339 13.6563 3.423L13.6652 3.43198ZM13.6652 17.807C14.5547 18.6066 14.6266 19.9632 13.827 20.8527L7.35821 28.0402C6.9629 28.4804 6.40587 28.741 5.8129 28.75C5.21993 28.7589 4.65391 28.5343 4.23165 28.121L0.628912 24.5273C-0.215619 23.6828 -0.215619 22.3171 0.628912 21.4816C1.47344 20.646 2.83907 20.6371 3.67462 21.4816L5.66016 23.4671L10.6106 17.9687C11.4102 17.0792 12.7668 17.0074 13.6563 17.807H13.6652ZM20.125 8.62495C20.125 7.03472 21.4098 5.74995 23 5.74995H43.125C44.7152 5.74995 46 7.03472 46 8.62495C46 10.2152 44.7152 11.5 43.125 11.5H23C21.4098 11.5 20.125 10.2152 20.125 8.62495ZM20.125 23C20.125 21.4097 21.4098 20.125 23 20.125H43.125C44.7152 20.125 46 21.4097 46 23C46 24.5902 44.7152 25.875 43.125 25.875H23C21.4098 25.875 20.125 24.5902 20.125 23ZM14.375 37.375C14.375 35.7847 15.6598 34.5 17.25 34.5H43.125C44.7152 34.5 46 35.7847 46 37.375C46 38.9652 44.7152 40.25 43.125 40.25H17.25C15.6598 40.25 14.375 38.9652 14.375 37.375ZM4.31251 33.0625C5.45625 33.0625 6.55315 33.5168 7.3619 34.3256C8.17066 35.1343 8.62501 36.2312 8.62501 37.375C8.62501 38.5187 8.17066 39.6156 7.3619 40.4243C6.55315 41.2331 5.45625 41.6875 4.31251 41.6875C3.16876 41.6875 2.07186 41.2331 1.26311 40.4243C0.454357 39.6156 6.07781e-06 38.5187 6.07781e-06 37.375C6.07781e-06 36.2312 0.454357 35.1343 1.26311 34.3256C2.07186 33.5168 3.16876 33.0625 4.31251 33.0625Z" fill="white"/>
</g>
<defs>
<clipPath id="clip0_252_2482">
<rect width="46" height="46" fill="white"/>
</clipPath>
</defs>
</svg>
