<svg width="46" height="46" viewBox="0 0 46 46" fill="none" xmlns="http://www.w3.org/2000/svg">
<g clip-path="url(#clip0_252_1502)">
<path d="M46 23C46 23.0809 46 23.1617 46 23.2426C45.9641 26.5219 42.9813 28.75 39.702 28.75H30.9062C28.5254 28.75 26.5938 30.6816 26.5938 33.0625C26.5938 33.368 26.6297 33.6645 26.6836 33.952C26.8723 34.8684 27.2676 35.7488 27.6539 36.6383C28.202 37.8781 28.741 39.109 28.741 40.4117C28.741 43.2687 26.8004 45.8652 23.9434 45.982C23.6289 45.991 23.3145 46 22.991 46C10.2961 46 0 35.7039 0 23C0 10.2961 10.2961 0 23 0C35.7039 0 46 10.2961 46 23ZM11.5 25.875C11.5 25.1125 11.1971 24.3812 10.6579 23.8421C10.1188 23.3029 9.3875 23 8.625 23C7.8625 23 7.13123 23.3029 6.59207 23.8421C6.0529 24.3812 5.75 25.1125 5.75 25.875C5.75 26.6375 6.0529 27.3688 6.59207 27.9079C7.13123 28.4471 7.8625 28.75 8.625 28.75C9.3875 28.75 10.1188 28.4471 10.6579 27.9079C11.1971 27.3688 11.5 26.6375 11.5 25.875ZM11.5 17.25C12.2625 17.25 12.9938 16.9471 13.5329 16.4079C14.0721 15.8688 14.375 15.1375 14.375 14.375C14.375 13.6125 14.0721 12.8812 13.5329 12.3421C12.9938 11.8029 12.2625 11.5 11.5 11.5C10.7375 11.5 10.0062 11.8029 9.46707 12.3421C8.9279 12.8812 8.625 13.6125 8.625 14.375C8.625 15.1375 8.9279 15.8688 9.46707 16.4079C10.0062 16.9471 10.7375 17.25 11.5 17.25ZM25.875 8.625C25.875 7.8625 25.5721 7.13123 25.0329 6.59207C24.4938 6.0529 23.7625 5.75 23 5.75C22.2375 5.75 21.5062 6.0529 20.9671 6.59207C20.4279 7.13123 20.125 7.8625 20.125 8.625C20.125 9.3875 20.4279 10.1188 20.9671 10.6579C21.5062 11.1971 22.2375 11.5 23 11.5C23.7625 11.5 24.4938 11.1971 25.0329 10.6579C25.5721 10.1188 25.875 9.3875 25.875 8.625ZM34.5 17.25C35.2625 17.25 35.9938 16.9471 36.5329 16.4079C37.0721 15.8688 37.375 15.1375 37.375 14.375C37.375 13.6125 37.0721 12.8812 36.5329 12.3421C35.9938 11.8029 35.2625 11.5 34.5 11.5C33.7375 11.5 33.0062 11.8029 32.4671 12.3421C31.9279 12.8812 31.625 13.6125 31.625 14.375C31.625 15.1375 31.9279 15.8688 32.4671 16.4079C33.0062 16.9471 33.7375 17.25 34.5 17.25Z" fill="#28A0D4"/>
</g>
<defs>
<clipPath id="clip0_252_1502">
<rect width="46" height="46" fill="white"/>
</clipPath>
</defs>
</svg>
