<svg width="46" height="46" viewBox="0 0 46 46" fill="none" xmlns="http://www.w3.org/2000/svg">
<g clip-path="url(#clip0_252_1578)">
<path d="M42.3703 1.94956C40.4027 -0.0180176 37.2223 -0.0180176 35.2547 1.94956L32.5504 4.64487L41.3461 13.4406L44.0504 10.7363C46.018 8.7687 46.018 5.58823 44.0504 3.62065L42.3703 1.94956ZM15.4891 21.7152C14.941 22.2632 14.5187 22.9371 14.2762 23.6828L11.6168 31.6609C11.3562 32.4335 11.5629 33.2871 12.1379 33.871C12.7129 34.455 13.5664 34.6527 14.348 34.3921L22.3262 31.7328C23.0629 31.4902 23.7367 31.0679 24.2937 30.5199L39.3246 15.48L30.5199 6.67534L15.4891 21.7152ZM8.625 5.74995C3.86328 5.74995 0 9.61323 0 14.375V37.375C0 42.1367 3.86328 46 8.625 46H31.625C36.3867 46 40.25 42.1367 40.25 37.375V28.75C40.25 27.1597 38.9652 25.875 37.375 25.875C35.7848 25.875 34.5 27.1597 34.5 28.75V37.375C34.5 38.9652 33.2152 40.25 31.625 40.25H8.625C7.03477 40.25 5.75 38.9652 5.75 37.375V14.375C5.75 12.7847 7.03477 11.5 8.625 11.5H17.25C18.8402 11.5 20.125 10.2152 20.125 8.62495C20.125 7.03472 18.8402 5.74995 17.25 5.74995H8.625Z" fill="#28A0D4"/>
</g>
<defs>
<clipPath id="clip0_252_1578">
<rect width="46" height="46" fill="white"/>
</clipPath>
</defs>
</svg>
