<svg width="46" height="46" viewBox="0 0 46 46" fill="none" xmlns="http://www.w3.org/2000/svg">
<g clip-path="url(#clip0_252_1536)">
<path d="M42.1637 1.73401L44.266 3.83635C46.5121 6.08245 46.5121 9.72112 44.266 11.9672L39.1988 17.0344L28.9566 6.8012L34.0238 1.73401C36.2699 -0.512085 39.9086 -0.512085 42.1547 1.73401H42.1637ZM4.03399 31.7328L26.9262 8.83167L37.1684 19.0739L14.2672 41.966C13.6652 42.568 12.9105 43.0082 12.093 43.2418L2.74922 45.9102C1.99453 46.1258 1.18594 45.9192 0.628907 45.3621C0.0718761 44.8051 -0.134765 43.9965 0.0808604 43.2418L2.74922 33.8981C2.98281 33.0715 3.42305 32.3258 4.025 31.7239L4.03399 31.7328ZM22.407 9.28987L9.28985 22.4071L1.4375 14.5457C-0.242577 12.8656 -0.242577 10.1344 1.4375 8.44534L8.4543 1.43752C10.1344 -0.242554 12.8656 -0.242554 14.5547 1.43752L16.3336 3.21643C16.3066 3.24338 16.2707 3.27034 16.2438 3.29729L10.4938 9.04729C9.93672 9.60432 9.93672 10.5207 10.4938 11.0778C11.0508 11.6348 11.9672 11.6348 12.5242 11.0778L18.2742 5.32776C18.3012 5.30081 18.3281 5.26487 18.3551 5.23792L22.407 9.28987ZM36.7102 23.593L40.7621 27.6449C40.7352 27.6719 40.6992 27.6989 40.6723 27.7258L34.9223 33.4758C34.3652 34.0328 34.3652 34.9492 34.9223 35.5063C35.4793 36.0633 36.3957 36.0633 36.9527 35.5063L42.7027 29.7563C42.7297 29.7293 42.7566 29.6934 42.7836 29.6664L44.5625 31.4543C46.2426 33.1344 46.2426 35.8657 44.5625 37.5547L37.5457 44.5625C35.8656 46.2426 33.1344 46.2426 31.4453 44.5625L23.593 36.7102L36.7102 23.593Z" fill="#28A0D4"/>
</g>
<defs>
<clipPath id="clip0_252_1536">
<rect width="46" height="46" fill="white"/>
</clipPath>
</defs>
</svg>
