<svg width="46" height="46" viewBox="0 0 46 46" fill="none" xmlns="http://www.w3.org/2000/svg">
<g clip-path="url(#clip0_252_2484)">
<path d="M14.0695 34.5809L11.2934 31.8047C10.5297 31.041 10.2602 29.9359 10.6016 28.9117C10.8711 28.1121 11.2305 27.0699 11.6617 25.875H2.15625C1.38359 25.875 0.664839 25.4617 0.278511 24.7879C-0.107817 24.1141 -0.0988326 23.2875 0.29648 22.6227L5.01328 14.6715C6.18125 12.7039 8.29257 11.5 10.5746 11.5H17.9687C18.1844 11.1406 18.4 10.8082 18.6156 10.4848C25.9738 -0.368357 36.9348 -0.727732 43.4754 0.476175C44.5176 0.664846 45.3262 1.48242 45.5238 2.52461C46.7277 9.07422 46.3594 20.0262 35.5152 27.3844C35.2008 27.6 34.8594 27.8156 34.5 28.0313V35.4254C34.5 37.7074 33.2961 39.8277 31.3285 40.9867L23.3773 45.7035C22.7125 46.0988 21.8859 46.1078 21.2121 45.7215C20.5383 45.3352 20.125 44.6254 20.125 43.8438V34.2125C18.8582 34.6527 17.7531 35.0121 16.9176 35.2816C15.9113 35.6051 14.8152 35.3266 14.0605 34.5809H14.0695ZM34.5 15.0938C35.4531 15.0938 36.3672 14.7151 37.0412 14.0412C37.7151 13.3672 38.0937 12.4531 38.0937 11.5C38.0937 10.5469 37.7151 9.6328 37.0412 8.95884C36.3672 8.28488 35.4531 7.90625 34.5 7.90625C33.5469 7.90625 32.6328 8.28488 31.9588 8.95884C31.2849 9.6328 30.9062 10.5469 30.9062 11.5C30.9062 12.4531 31.2849 13.3672 31.9588 14.0412C32.6328 14.7151 33.5469 15.0938 34.5 15.0938Z" fill="white"/>
</g>
<defs>
<clipPath id="clip0_252_2484">
<rect width="46" height="46" fill="white"/>
</clipPath>
</defs>
</svg>
